<?xml version="1.0" encoding="UTF-8"?>
<svg width="44px" height="56px" viewBox="0 0 44 56" version="1.1" xmlns="http://www.w3.org/2000/svg" xmlns:xlink="http://www.w3.org/1999/xlink">
    <!-- Generator: Sketch 42 (36781) - http://www.bohemiancoding.com/sketch -->
    <title>Group 2</title>
    <desc>Created with Sketch.</desc>
    <defs></defs>
    <g id="Page-1" stroke="none" stroke-width="1" fill="none" fill-rule="evenodd">
        <g id="Group-2">
            <g id="doc" fill-rule="nonzero">
                <g id="Group">
                    <path d="M30.985,0 L1.963,0 C1.155,0 0.5,0.655 0.5,1.926 L0.5,55 C0.5,55.345 1.155,56 1.963,56 L42.037,56 C42.845,56 43.5,55.345 43.5,55 L43.5,12.978 C43.5,12.282 43.407,12.058 43.243,11.893 L31.607,0.257 C31.442,0.093 31.218,0 30.985,0 Z" id="Shape" fill="#E9E9E0"></path>
                    <polygon id="Shape" fill="#D9D7CA" points="31.5 0.151 31.5 12 43.349 12"></polygon>
                    <path d="M12.5,13 L6.5,13 C5.948,13 5.5,12.552 5.5,12 C5.5,11.448 5.948,11 6.5,11 L12.5,11 C13.052,11 13.5,11.448 13.5,12 C13.5,12.552 13.052,13 12.5,13 Z" id="Shape" fill="#9B9B9B"></path>
                    <path d="M15.5,18 L6.5,18 C5.948,18 5.5,17.552 5.5,17 C5.5,16.448 5.948,16 6.5,16 L15.5,16 C16.052,16 16.5,16.448 16.5,17 C16.5,17.552 16.052,18 15.5,18 Z" id="Shape" fill="#9B9B9B"></path>
                    <path d="M19.5,18 C19.24,18 18.98,17.89 18.79,17.71 C18.61,17.52 18.5,17.26 18.5,17 C18.5,16.74 18.61,16.48 18.79,16.29 C19.16,15.92 19.84,15.92 20.21,16.29 C20.39,16.48 20.5,16.74 20.5,17 C20.5,17.26 20.39,17.52 20.21,17.71 C20.02,17.89 19.76,18 19.5,18 Z" id="Shape" fill="#9B9B9B"></path>
                    <path d="M31.5,18 L23.5,18 C22.948,18 22.5,17.552 22.5,17 C22.5,16.448 22.948,16 23.5,16 L31.5,16 C32.052,16 32.5,16.448 32.5,17 C32.5,17.552 32.052,18 31.5,18 Z" id="Shape" fill="#9B9B9B"></path>
                    <path d="M6.5,33 C6.24,33 5.98,32.89 5.79,32.71 C5.61,32.52 5.5,32.26 5.5,32 C5.5,31.74 5.61,31.48 5.79,31.29 C6.16,30.92 6.84,30.92 7.21,31.29 C7.39,31.48 7.5,31.73 7.5,32 C7.5,32.26 7.39,32.52 7.21,32.71 C7.02,32.89 6.76,33 6.5,33 Z" id="Shape" fill="#9B9B9B"></path>
                    <path d="M18.5,33 L10.5,33 C9.948,33 9.5,32.552 9.5,32 C9.5,31.448 9.948,31 10.5,31 L18.5,31 C19.052,31 19.5,31.448 19.5,32 C19.5,32.552 19.052,33 18.5,33 Z" id="Shape" fill="#9B9B9B"></path>
                    <path d="M37.5,18 L35.5,18 C34.948,18 34.5,17.552 34.5,17 C34.5,16.448 34.948,16 35.5,16 L37.5,16 C38.052,16 38.5,16.448 38.5,17 C38.5,17.552 38.052,18 37.5,18 Z" id="Shape" fill="#9B9B9B"></path>
                    <path d="M28.5,23 L6.5,23 C5.948,23 5.5,22.552 5.5,22 C5.5,21.448 5.948,21 6.5,21 L28.5,21 C29.052,21 29.5,21.448 29.5,22 C29.5,22.552 29.052,23 28.5,23 Z" id="Shape" fill="#9B9B9B"></path>
                    <path d="M37.5,23 L31.5,23 C30.948,23 30.5,22.552 30.5,22 C30.5,21.448 30.948,21 31.5,21 L37.5,21 C38.052,21 38.5,21.448 38.5,22 C38.5,22.552 38.052,23 37.5,23 Z" id="Shape" fill="#9B9B9B"></path>
                    <path d="M10.5,28 L6.5,28 C5.948,28 5.5,27.552 5.5,27 C5.5,26.448 5.948,26 6.5,26 L10.5,26 C11.052,26 11.5,26.448 11.5,27 C11.5,27.552 11.052,28 10.5,28 Z" id="Shape" fill="#9B9B9B"></path>
                    <path d="M24.5,28 L14.5,28 C13.948,28 13.5,27.552 13.5,27 C13.5,26.448 13.948,26 14.5,26 L24.5,26 C25.052,26 25.5,26.448 25.5,27 C25.5,27.552 25.052,28 24.5,28 Z" id="Shape" fill="#8697CB"></path>
                    <path d="M37.5,28 L28.5,28 C27.948,28 27.5,27.552 27.5,27 C27.5,26.448 27.948,26 28.5,26 L37.5,26 C38.052,26 38.5,26.448 38.5,27 C38.5,27.552 38.052,28 37.5,28 Z" id="Shape" fill="#9B9B9B"></path>
                    <path d="M6.5,50 C6.24,50 5.98,49.89 5.79,49.71 C5.61,49.52 5.5,49.26 5.5,49 C5.5,48.74 5.61,48.48 5.79,48.29 C6.16,47.92 6.84,47.92 7.21,48.29 C7.39,48.48 7.5,48.73 7.5,49 C7.5,49.26 7.39,49.52 7.21,49.71 C7.02,49.89 6.76,50 6.5,50 Z" id="Shape-Copy-7" fill="#9B9B9B"></path>
                    <path d="M18.5,50 L10.5,50 C9.948,50 9.5,49.552 9.5,49 C9.5,48.448 9.948,48 10.5,48 L18.5,48 C19.052,48 19.5,48.448 19.5,49 C19.5,49.552 19.052,50 18.5,50 Z" id="Shape-Copy-6" fill="#9B9B9B"></path>
                    <path d="M28.5,40 L6.5,40 C5.948,40 5.5,39.552 5.5,39 C5.5,38.448 5.948,38 6.5,38 L28.5,38 C29.052,38 29.5,38.448 29.5,39 C29.5,39.552 29.052,40 28.5,40 Z" id="Shape-Copy-5" fill="#9B9B9B"></path>
                    <path d="M37.5,40 L31.5,40 C30.948,40 30.5,39.552 30.5,39 C30.5,38.448 30.948,38 31.5,38 L37.5,38 C38.052,38 38.5,38.448 38.5,39 C38.5,39.552 38.052,40 37.5,40 Z" id="Shape-Copy-4" fill="#9B9B9B"></path>
                    <path d="M10.5,45 L6.5,45 C5.948,45 5.5,44.552 5.5,44 C5.5,43.448 5.948,43 6.5,43 L10.5,43 C11.052,43 11.5,43.448 11.5,44 C11.5,44.552 11.052,45 10.5,45 Z" id="Shape-Copy-3" fill="#9B9B9B"></path>
                    <path d="M24.5,45 L14.5,45 C13.948,45 13.5,44.552 13.5,44 C13.5,43.448 13.948,43 14.5,43 L24.5,43 C25.052,43 25.5,43.448 25.5,44 C25.5,44.552 25.052,45 24.5,45 Z" id="Shape-Copy-2" fill="#9B9B9B"></path>
                    <path d="M37.5,45 L28.5,45 C27.948,45 27.5,44.552 27.5,44 C27.5,43.448 27.948,43 28.5,43 L37.5,43 C38.052,43 38.5,43.448 38.5,44 C38.5,44.552 38.052,45 37.5,45 Z" id="Shape-Copy" fill="#9B9B9B"></path>
                </g>
            </g>
            <g id="error-(1)" transform="translate(13.000000, 21.000000)">
                <g id="Capa_1">
                    <path d="M15.3598846,2.63180769 C11.8509231,-0.877153846 6.14111538,-0.8775 2.63180769,2.63180769 C-0.8775,6.14111538 -0.877153846,11.8505769 2.63180769,15.3598846 C6.14076923,18.8691923 11.8505769,18.8691923 15.3598846,15.3598846 C18.8688462,11.8505769 18.8688462,6.14076923 15.3598846,2.63180769 Z" id="Shape" fill="#D80027" fill-rule="nonzero"></path>
                    <path d="M12.5449615,12.5449615 C12.2746154,12.8153077 11.8363846,12.8153077 11.5660385,12.5449615 L8.99584615,9.97476923 L6.30346154,12.6671538 C6.03311538,12.9375 5.59488462,12.9375 5.32453846,12.6671538 C5.05419231,12.3968077 5.05419231,11.9585769 5.32453846,11.6882308 L8.01692308,8.99584615 L5.44673077,6.42565385 C5.17638462,6.15530769 5.17638462,5.71673077 5.44673077,5.44673077 C5.71707692,5.17638462 6.15530769,5.17638462 6.42565385,5.44673077 L8.99584615,8.01692308 L11.4435,5.56926923 C11.7138462,5.29892308 12.1520769,5.29892308 12.4224231,5.56926923 C12.6927692,5.83961538 12.6927692,6.27784615 12.4224231,6.54819231 L9.97476923,8.99584615 L12.5449615,11.5660385 C12.8153077,11.8363846 12.8153077,12.2746154 12.5449615,12.5449615 Z" id="Path" fill="#FFFFFF"></path>
                </g>
            </g>
        </g>
    </g>
</svg>