<?xml version="1.0" encoding="UTF-8"?>
<svg width="14px" height="14px" viewBox="0 0 14 14" version="1.1" xmlns="http://www.w3.org/2000/svg" xmlns:xlink="http://www.w3.org/1999/xlink">
    <!-- Generator: sketchtool 41.2 (35397) - http://www.bohemiancoding.com/sketch -->
    <title>0C509E3E-96EA-4714-B8CA-7D4081A12AA9</title>
    <desc>Created with sketchtool.</desc>
    <defs></defs>
    <g id="Mobile--profile-setup" stroke="none" stroke-width="1" fill="none" fill-rule="evenodd">
        <g id="Mob_Operator-Image-1" transform="translate(-18.000000, -80.000000)" fill="#1E201D">
            <g id="left-arrow-copy-2" transform="translate(25.000000, 87.000000) scale(-1, 1) translate(-25.000000, -87.000000) translate(18.000000, 80.000000)">
                <path d="M6.83212121,0.614173913 C7.10121212,0.343913043 7.52484848,0.343913043 7.79393939,0.614173913 C8.05393939,0.875304348 8.05393939,1.30991304 7.79393939,1.57043478 L2.9169697,6.4686087 L13.010303,6.4686087 C13.3854545,6.4686087 13.6933333,6.76808696 13.6933333,7.14486957 C13.6933333,7.52165217 13.3854545,7.83086957 13.010303,7.83086957 L2.9169697,7.83086957 L7.79393939,12.719913 C8.05393939,12.9901739 8.05393939,13.4253913 7.79393939,13.685913 C7.52484848,13.9561739 7.10121212,13.9561739 6.83212121,13.685913 L0.800606061,7.62817391 C0.540606061,7.36704348 0.540606061,6.93243478 0.800606061,6.67191304 L6.83212121,0.614173913 Z" id="Shape" transform="translate(7.149470, 7.150043) scale(-1, 1) translate(-7.149470, -7.150043) "></path>
            </g>
        </g>
    </g>
</svg>