<?xml version="1.0" encoding="UTF-8"?>
<svg width="14px" height="14px" viewBox="0 0 14 14" version="1.1" xmlns="http://www.w3.org/2000/svg" xmlns:xlink="http://www.w3.org/1999/xlink">
    <!-- Generator: sketchtool 41.2 (35397) - http://www.bohemiancoding.com/sketch -->
    <title>3B96A0E5-F410-4C4E-9E6B-1E5257B8CAEE</title>
    <desc>Created with sketchtool.</desc>
    <defs></defs>
    <g id="Mobile--profile-setup" stroke="none" stroke-width="1" fill="none" fill-rule="evenodd">
        <g id="Mob_Operator-Image-1" transform="translate(-288.000000, -80.000000)" fill="#1E201D">
            <path d="M294.533182,80.6141739 C294.802273,80.343913 295.225909,80.343913 295.495,80.6141739 C295.755,80.8753043 295.755,81.309913 295.495,81.5704348 L290.61803,86.4686087 L300.711364,86.4686087 C301.086515,86.4686087 301.394394,86.768087 301.394394,87.1448696 C301.394394,87.5216522 301.086515,87.8308696 300.711364,87.8308696 L290.61803,87.8308696 L295.495,92.719913 C295.755,92.9901739 295.755,93.4253913 295.495,93.685913 C295.225909,93.9561739 294.802273,93.9561739 294.533182,93.685913 L288.501667,87.6281739 C288.241667,87.3670435 288.241667,86.9324348 288.501667,86.671913 L294.533182,80.6141739 Z" id="Shape-Copy" transform="translate(294.850530, 87.150043) scale(-1, 1) translate(-294.850530, -87.150043) "></path>
        </g>
    </g>
</svg>